<?xml version="1.0" encoding="UTF-8"?>
<svg xmlns="http://www.w3.org/2000/svg" xmlns:xlink="http://www.w3.org/1999/xlink" width="314pt" height="100pt" viewBox="0 0 314 100" version="1.1">
<g id="surface10681">
<path style="fill:none;stroke-width:1;stroke-linecap:round;stroke-linejoin:miter;stroke:rgb(0%,0%,0%);stroke-opacity:1;stroke-miterlimit:10;" d="M 314.5 50.5 C 314.5 52.5 312.5 54.5 309.5 54.5 C 307.5 54.5 305.5 52.5 305.5 50.5 C 305.5 47.5 307.5 45.5 309.5 45.5 C 312.5 45.5 314.5 47.5 314.5 50.5 Z M 314.5 50.5 "/>
<path style="fill:none;stroke-width:1;stroke-linecap:round;stroke-linejoin:miter;stroke:rgb(0%,0%,0%);stroke-opacity:1;stroke-miterlimit:10;" d="M 305.5 50.5 C 305.5 53.5 303.5 55.5 299.5 55.5 C 296.5 55.5 294.5 53.5 294.5 50.5 C 294.5 46.5 296.5 44.5 299.5 44.5 C 303.5 44.5 305.5 46.5 305.5 50.5 Z M 305.5 50.5 "/>
<path style="fill:none;stroke-width:1;stroke-linecap:round;stroke-linejoin:miter;stroke:rgb(0%,0%,0%);stroke-opacity:1;stroke-miterlimit:10;" d="M 294.5 50.5 C 294.5 54.5 290.5 58.5 285.5 58.5 C 281.5 58.5 277.5 54.5 277.5 50.5 C 277.5 45.5 281.5 41.5 285.5 41.5 C 290.5 41.5 294.5 45.5 294.5 50.5 Z M 294.5 50.5 "/>
<path style="fill:none;stroke-width:1;stroke-linecap:round;stroke-linejoin:miter;stroke:rgb(0%,0%,0%);stroke-opacity:1;stroke-miterlimit:10;" d="M 277.5 50.5 C 277.5 56.5 271.5 62.5 265.5 62.5 C 258.5 62.5 253.5 56.5 253.5 50.5 C 253.5 43.5 258.5 37.5 265.5 37.5 C 271.5 37.5 277.5 43.5 277.5 50.5 Z M 277.5 50.5 "/>
<path style="fill:none;stroke-width:1;stroke-linecap:round;stroke-linejoin:miter;stroke:rgb(0%,0%,0%);stroke-opacity:1;stroke-miterlimit:10;" d="M 253.5 50.5 C 253.5 59.5 245.5 67.5 236.5 67.5 C 226.5 67.5 219.5 59.5 219.5 50.5 C 219.5 40.5 226.5 32.5 236.5 32.5 C 245.5 32.5 253.5 40.5 253.5 50.5 Z M 253.5 50.5 "/>
<path style="fill:none;stroke-width:1;stroke-linecap:round;stroke-linejoin:miter;stroke:rgb(0%,0%,0%);stroke-opacity:1;stroke-miterlimit:10;" d="M 219.5 50.5 C 219.5 63.5 208.5 74.5 194.5 74.5 C 180.5 74.5 170.5 63.5 170.5 50.5 L 170.5 49.5 C 170.5 36.5 180.5 25.5 194.5 25.5 C 208.5 25.5 219.5 36.5 219.5 50.5 Z M 219.5 50.5 "/>
<path style="fill:none;stroke-width:1;stroke-linecap:round;stroke-linejoin:miter;stroke:rgb(0%,0%,0%);stroke-opacity:1;stroke-miterlimit:10;" d="M 170.5 50.5 C 170.5 69.5 154.5 85.5 135.5 85.5 C 115.5 85.5 100.5 69.5 100.5 49.5 C 100.5 30.5 115.5 15.5 135.5 15.5 C 154.5 15.5 170.5 30.5 170.5 50.5 Z M 170.5 50.5 "/>
<path style="fill:none;stroke-width:1;stroke-linecap:round;stroke-linejoin:miter;stroke:rgb(0%,0%,0%);stroke-opacity:1;stroke-miterlimit:10;" d="M 100.5 50.5 C 100.5 77.5 77.5 100.5 49.5 100.5 C 22.5 100.5 -0.5 77.5 0.5 49.5 C 0.5 22.5 22.5 0.5 50.5 0.5 C 77.5 0.5 100.5 22.5 100.5 50.5 Z M 100.5 50.5 "/>
</g>
</svg>
