<?xml version="1.0" encoding="UTF-8" standalone="no"?>
<svg
   xmlns:dc="http://purl.org/dc/elements/1.1/"
   xmlns:cc="http://creativecommons.org/ns#"
   xmlns:rdf="http://www.w3.org/1999/02/22-rdf-syntax-ns#"
   xmlns:svg="http://www.w3.org/2000/svg"
   xmlns="http://www.w3.org/2000/svg"
   version="1.0"
   width="74.199043"
   height="74.199043"
   id="svg2">
  <metadata
     id="metadata8">
    <rdf:RDF>
      <cc:Work
         rdf:about="">
        <dc:format>image/svg+xml</dc:format>
        <dc:type
           rdf:resource="http://purl.org/dc/dcmitype/StillImage" />
        <dc:title></dc:title>
      </cc:Work>
    </rdf:RDF>
  </metadata>
  <defs
     id="defs4" />
  <path
     d="M 30.599605,20.999732 10.79986,72.999062 h 9.599877 l 14.599812,-41.99946 12.199844,35.39955 c 0.6687,2.20622 1.55619,4.0437 2.66247,5.51242 1.10619,1.46873 2.91866,2.23122 5.43742,2.28747 2.19993,0 4.89989,-0.79999 8.0999,-2.39996 l -1.99997,-6.99991 c -0.27922,0.22083 -0.82088,0.45417 -1.62498,0.69999 -0.80421,0.24583 -1.39587,0.37916 -1.77498,0.39999 -0.65421,-0.004 -1.22086,-0.17082 -1.69998,-0.49999 -0.47921,-0.32916 -0.84587,-0.79582 -1.09998,-1.39998 l -16.59979,-43.79944 c -1.57084,-4.8228 -3.55415,-9.3269 -5.949926,-13.5123304 C 30.253755,2.5021216 26.370476,0.27298164 20.999729,1.6369629e-6 19.483071,7.1636963e-5 17.61643,0.40007164 15.399801,1.1999816 l -0.999987,8.1999 c 0.106244,-0.0333 0.768735,-0.1666 1.987475,-0.4 1.218726,-0.23326 2.35621,-0.36659 3.412455,-0.39999 3.162444,0.0167 5.437412,1.08338 6.824911,3.1999604 1.387464,2.1167 2.712446,5.18332 3.97495,9.19988 z"
     id="text2407"
     style="font-style:normal;font-variant:normal;font-weight:normal;font-stretch:normal;font-size:100px;font-family:FreeSans;-inkscape-font-specification:FreeSans;fill:#000000;fill-opacity:1;stroke:none;stroke-width:1px;stroke-linecap:butt;stroke-linejoin:miter;stroke-opacity:1" />
</svg>
